<?xml version="1.0" encoding="utf-8"?>
<!DOCTYPE svg PUBLIC "-//W3C//DTD SVG 1.1//EN" "http://www.w3.org/Graphics/SVG/1.1/DTD/svg11.dtd">
<svg version="1.1" id="Layer_1" xmlns="http://www.w3.org/2000/svg" xmlns:xlink="http://www.w3.org/1999/xlink" x="0px" y="0px"
	 width="419px" height="417px" viewBox="0 0 419 417" enable-background="new 0 0 419 417" xml:space="preserve">
<path fill="#616161" d="M127.778,376.49c-30.312,0-60.062,0-90.192,0c0-30.182,0-60.215,0-90.676
	c1.725-0.123,3.343-0.334,4.961-0.336c26.646-0.021,53.298,0.08,79.942-0.107c4.406-0.031,5.675,1.268,5.645,5.652
	c-0.188,26.811-0.088,53.629-0.104,80.443C128.027,372.951,127.884,374.436,127.778,376.49z"/>
<path fill="#616161" d="M372.529,285.857c0,30.277,0,60.191,0,90.492c-29.979,0-59.848,0-90.207,0
	c-0.121-1.812-0.344-3.58-0.346-5.352c-0.021-26.812,0.048-53.631-0.084-80.441c-0.021-3.863,1.104-5.191,5.086-5.169
	c26.979,0.146,53.964,0.069,80.945,0.093C369.379,285.482,370.829,285.713,372.529,285.857z"/>
<path fill="#616161" d="M159.523,376.396c0-30.225,0-60.119,0-90.02c0.334-0.209,0.668-0.418,1.002-0.627
	c14.773,20.873,29.546,41.746,44.753,63.23c15.164-21.438,29.801-42.133,45.153-63.842c0,31.201,0,61.061,0,91.254
	C220.213,376.396,190.152,376.396,159.523,376.396z"/>
<path fill="#616161" d="M128.277,43.536c0.108,1.762,0.292,3.374,0.293,4.987c0.021,26.976-0.064,53.95,0.102,80.924
	c0.022,4.154-1.2,5.353-5.354,5.325c-27.14-0.171-54.278-0.086-81.423-0.096c-1.312,0-2.625-0.11-4.398-0.189
	c0-30.305,0-60.467,0-90.951C67.734,43.536,97.779,43.536,128.277,43.536z"/>
<path fill="#616161" d="M372.805,43.627c0,9.309,0.001,18.125,0,26.942c0,19.82-0.045,39.642,0.046,59.46
	c0.014,3.001-0.539,4.573-4.049,4.561c-27.647-0.104-55.296-0.053-82.944-0.084c-1.12,0-2.238-0.354-3.605-0.584
	c0-30.111,0-60.021,0-90.295C312.404,43.627,342.271,43.627,372.805,43.627z"/>
<path fill="#616161" d="M37.53,165.5c30.118,0,59.867,0,90.124,0c0.14,1.918,0.368,3.684,0.369,5.446
	c0.023,26.652-0.062,53.305,0.104,79.958c0.022,4.244-0.99,5.781-5.537,5.746c-26.818-0.205-53.637-0.121-80.457-0.074
	c-2.938,0.006-5.029-0.039-5.007-4.09c0.147-28.15,0.087-56.301,0.104-84.455C37.227,167.379,37.378,166.727,37.53,165.5z"/>
<path fill="#616161" d="M282.259,256.174c0-30.367,0-60.284,0-90.552c30.167,0,60.037,0,90.214,0
	c0.118,1.432,0.312,2.717,0.312,4.004c0.021,27.317-0.062,54.638,0.104,81.955c0.021,4.01-1.229,5.065-5.113,5.047
	c-26.814-0.146-53.638-0.069-80.456-0.094C285.705,256.533,284.092,256.311,282.259,256.174z"/>
<path fill="#616161" d="M205.455,108.769c20.123,32.646,39.653,64.327,59.467,96.464c-2.656,1.662-5.145,3.224-7.634,4.775
	c-16.099,10.023-32.159,20.1-48.348,29.977c-1.541,0.941-4.374,1.559-5.706,0.779c-19.231-11.227-38.312-22.717-58.05-34.512
	C165.214,173.86,185.091,141.708,205.455,108.769z"/>
<path fill="#616161" d="M248.992,134.53c-14.438-23.369-28.875-46.738-43.967-71.162c-15.004,24.209-29.522,47.641-44.047,71.071
	c-0.393-0.144-0.785-0.287-1.177-0.431c0-29.959,0-59.918,0-90.312c29.906,0,60.08,0,90.569,0c0,30.054,0,60.079,0,90.104
	C249.914,134.045,249.453,134.288,248.992,134.53z"/>
<path fill="#616161" d="M205.107,304.086c-18.16-25.695-35.736-50.572-54.176-76.66c2.402,1.238,3.631,1.793,4.779,2.479
	c15.298,9.133,30.638,18.198,45.83,27.504c2.998,1.838,5.125,1.789,8.07-0.086c14.609-9.296,29.372-18.354,44.085-27.48
	c1.395-0.862,2.813-1.678,5.093-1.782C241.057,253.17,223.323,278.287,205.107,304.086z"/>
</svg>
